PathFileType	4	(X/Y/Z)	Run_400 02
DataRate	CameraRate	NumFrames	NumMarkers	Units	OrigDataRate	OrigDataStartFrame	OrigNumFrames
100	100	6	45	mm	100	50	137
Frame#	Time	LASI			RASI			LPSI			RPSI			RTH1			RTH2			RTH3			LTH1			LTH2			LTH3			RTB1			RTB2			RTB3			RLMAL			RMMAL			LTB1			LTB2			LTB3			RCAL			RTOE			RMT5			LCAL			LTOE			LMT5			LACR			RACR			CLAV			C7			LPSH			RUA1			RUA2			RUA3			RLEL			RMEL			LUA1			LUA2			LUA3			LLEL			LMEL			RFAsuperior			RFAradius			RFAulna			LFAsuperior			LFAradius			LFAulna			
		X1	Y1	Z1	X2	Y2	Z2	X3	Y3	Z3	X4	Y4	Z4	X5	Y5	Z5	X6	Y6	Z6	X7	Y7	Z7	X8	Y8	Z8	X9	Y9	Z9	X10	Y10	Z10	X11	Y11	Z11	X12	Y12	Z12	X13	Y13	Z13	X14	Y14	Z14	X15	Y15	Z15	X16	Y16	Z16	X17	Y17	Z17	X18	Y18	Z18	X19	Y19	Z19	X20	Y20	Z20	X21	Y21	Z21	X22	Y22	Z22	X23	Y23	Z23	X24	Y24	Z24	X25	Y25	Z25	X26	Y26	Z26	X27	Y27	Z27	X28	Y28	Z28	X29	Y29	Z29	X30	Y30	Z30	X31	Y31	Z31	X32	Y32	Z32	X33	Y33	Z33	X34	Y34	Z34	X35	Y35	Z35	X36	Y36	Z36	X37	Y37	Z37	X38	Y38	Z38	X39	Y39	Z39	X40	Y40	Z40	X41	Y41	Z41	X42	Y42	Z42	X43	Y43	Z43	X44	Y44	Z44	X45	Y45	Z45	

50	0.6	916.508043	1027.303116	-441.590575	918.660793	1044.671135	-205.092059	754.759137	1086.711745	-369.071571	754.104477	1084.816952	-280.36635	934.82355	822.3485920000001	-158.083976	1042.325065	818.143004	-180.613812	1049.721749	699.233172	-185.27749	774.355582	826.447424	-484.349779	819.644584	704.01894	-463.71142	742.329775	619.643385	-451.615362	1060.346008	503.838751	-238.639791	989.771087	497.455041	-194.375383	910.924076	396.239417	-234.798188	797.950527	351.425566	-218.060949	830.30306	344.619675	-296.677173	692.7757800000001	387.006679	-396.695459	568.6587060000001	343.456242	-419.815301	573.285239	238.830137	-364.534297	742.897475	370.266734	-289.066439	873.531875	195.765144	-238.028799	812.043687	241.692904	-175.735881	396.413133	160.012448	-315.725308	587.460289	63.004753	-315.690825	538.494412	57.326437	-387.623051	918.509936	1542.258874	-496.450584	872.031009	1524.639069	-181.288474	964.9781819999999	1466.201247	-305.218168	856.850658	1558.863444	-343.338294	840.976824	1500.393898	-521.842789	764.473156	1410.505382	-110.767588	683.0366739999999	1384.698547	-157.264825	652.976511	1341.757689	-110.853687	629.24326	1281.034387	-76.32637800000001	629.856685	1262.17728	-166.315154	863.527493	1403.976119	-577.285387	806.263489	1318.456051	-568.279539	843.589368	1271.778164	-613.130511	860.273449	1196.846113	-626.585158	810.3737170000001	1186.53994	-547.219068	663.984063	1208.759232	-70.814986	853.998364	1161.331935	-73.358007	825.999407	1100.379198	-57.494036	928.72052	1175.646208	-560.9513930000001	1030.897231	1286.772268	-473.280809	1059.227258	1224.168489	-473.212306	
51	0.61	922.536111	1032.738624	-439.324511	920.717103	1053.498656	-205.052742	760.110272	1093.147928	-371.417032	757.792974	1091.97633	-282.305345	938.155277	831.568446	-158.207584	1045.114008	828.4938990000001	-180.107161	1052.511261	708.97349	-185.923602	771.533623	835.2922579999999	-484.598071	809.667102	711.719422	-463.945951	726.485555	632.1356019999999	-453.24309	1076.433372	508.245852	-238.185735	1007.020102	494.393351	-194.612781	938.97504	385.763279	-235.73442	831.0659889999999	329.422111	-218.931132	864.174453	326.101506	-297.585817	666.81228	400.934146	-401.184149	541.437832	359.331835	-420.259336	548.330954	251.993845	-368.823288	774.277968	342.671046	-289.723164	922.301733	182.276599	-239.352019	856.326492	221.445157	-176.624058	374.554125	179.781249	-316.903115	548.559897	63.34372	-316.565299	501.65664	58.085363	-387.366604	918.732061	1551.418906	-494.268707	868.274633	1531.727708	-180.890443	963.49208	1474.936306	-302.948439	855.549761	1565.876905	-342.620568	842.285083	1508.356938	-521.258362	758.956423	1419.865307	-113.723577	679.267258	1393.804125	-163.791595	646.9260420000001	1351.646736	-118.083112	621.4872350000001	1290.984526	-83.378974	625.004376	1272.138033	-173.793914	866.63464	1412.256631	-575.437661	810.492426	1325.832313	-565.888985	849.175291	1280.237367	-611.433549	868.531457	1204.859738	-624.269557	816.287438	1194.113376	-545.371788	656.622758	1218.922326	-76.730226	847.196895	1172.790777	-75.572891	819.473606	1112.007241	-58.501562	935.684359	1188.855242	-555.261018	1028.856448	1307.151917	-466.963626	1060.303288	1246.127017	-464.400661	
52	0.62	928.650278	1038.743771	-436.569908	923.000357	1062.286366	-205.063955	765.745076	1099.634686	-373.847103	761.780769	1098.979562	-284.58388	940.459464	839.459436	-158.640399	1046.885491	836.382874	-179.964147	1053.612218	716.740595	-186.760628	769.3013570000001	844.598057	-484.870112	800.37659	720.392834	-465.207733	712.610045	645.673094	-454.735568	1090.558315	511.092353	-237.572466	1022.737091	490.089601	-194.71655	966.580434	374.8832	-236.746723	865.024908	307.350928	-220.530695	898.880758	307.694073	-298.817863	645.024164	415.909572	-406.059498	518.586448	375.429163	-420.572025	527.418181	265.513309	-373.542964	807.33758	314.898046	-291.302544	971.271118	170.432525	-241.089361	901.167869	202.186093	-178.315343	358.142198	201.397615	-318.228143	512.998793	65.20624599999999	-317.678823	466.149482	61.550908	-387.224559	919.339511	1559.996337	-492.305491	865.145072	1538.461566	-180.553772	962.2698	1483.310754	-300.80932	854.522961	1572.79506	-341.914475	843.79475	1516.304367	-520.843136	754.452388	1428.453112	-116.274571	676.305598	1402.652819	-169.233077	641.83144	1360.898162	-124.72934	614.696735	1300.274398	-90.32699700000001	621.248377	1281.560031	-181.447391	869.796882	1420.773426	-573.801917	814.70492	1333.698239	-563.772018	853.759788	1288.859399	-610.027237	875.611024	1212.950768	-622.1168259999999	821.186404	1201.658673	-543.62799	650.1519939999999	1228.44999	-82.730835	841.208607	1183.678367	-77.860556	813.653321	1122.964593	-60.401176	941.2446650000001	1201.565493	-550.223894	1025.777921	1325.908839	-461.529223	1060.098328	1266.441884	-456.83392	
53	0.63	934.324585	1045.177085	-434.392336	925.292271	1070.423564	-205.075737	771.097905	1105.949703	-376.006867	765.676503	1105.739827	-286.817584	941.555063	845.634302	-159.463891	1047.470952	841.743102	-180.063396	1052.9362	722.248019	-187.898164	767.095355	854.284145	-485.204795	792.0491469999999	729.394992	-467.498003	701.397427	658.80481	-456.133428	1102.717182	512.082975	-236.501421	1036.760058	484.355573	-194.604	993.392183	363.700655	-237.696873	899.3532719999999	285.412016	-222.861526	933.988526	289.855964	-300.56882	627.832931	430.11333	-410.470258	500.514981	390.968932	-421.177055	509.699085	278.96623	-377.696978	841.788459	287.262433	-293.968581	1019.867607	160.754338	-242.782204	945.877842	184.286866	-180.445182	345.817061	224.635811	-319.539589	481.803799	68.613989	-319.098064	432.589572	69.749719	-387.183135	920.098333	1567.881029	-490.489426	862.54481	1544.580801	-180.19774	961.31892	1490.950132	-298.823389	853.726793	1579.246848	-341.135367	845.278717	1523.899633	-520.373953	750.804994	1435.856723	-118.342189	673.980529	1410.828483	-173.59982	637.6252030000001	1369.169371	-130.692741	608.832692	1308.586916	-97.05412200000001	618.547599	1289.965964	-189.041111	873.003544	1429.022123	-572.494068	818.861388	1341.672093	-562.586358	857.887965	1297.218733	-608.93787	881.713511	1220.753206	-620.196141	825.341807	1209.04755	-542.382577	644.511036	1237.018296	-88.677559	835.970645	1193.633666	-80.142627	808.620058	1132.832756	-62.913397	945.634067	1213.298228	-545.902182	1022.218444	1342.589498	-456.960888	1059.051825	1284.595109	-450.473708	
54	0.64	938.956069	1051.556892	-433.466494	927.368564	1077.340828	-205.169072	775.605709	1111.962074	-377.659839	769.262523	1112.064391	-288.625612	941.238275	849.7325959999999	-160.659845	1046.648512	844.61116	-179.993585	1050.248551	725.145449	-189.448235	764.83172	863.9051940000001	-485.606342	785.627575	737.869284	-470.321907	693.7697020000001	669.909241	-457.42118	1112.79597	511.092138	-235.091794	1049.290845	476.876909	-194.387205	1019.116433	352.282031	-238.780377	933.613979	263.898083	-225.72581	968.778897	272.985351	-302.881995	615.087818	442.086633	-413.717918	486.882684	405.754787	-422.41877	493.989553	292.535008	-380.683665	877.057187	260.265103	-297.509728	1067.289415	153.641717	-244.506036	989.952983	167.974406	-182.954322	335.471601	249.139095	-320.576444	454.328406	73.657268	-320.943472	400.906514	83.506968	-387.015551	920.764501	1575.039836	-488.612297	860.409962	1549.872445	-179.748067	960.573007	1497.568788	-297.031505	853.1093499999999	1584.904831	-340.226417	846.540536	1530.868987	-519.691263	747.7460129999999	1441.944073	-120.093951	672.072622	1417.978929	-177.244545	634.19717	1376.236442	-136.052232	603.86914	1315.723254	-103.446195	616.5175390000001	1296.860439	-195.752336	876.218871	1436.542165	-571.553681	822.671567	1349.270462	-562.516219	861.951985	1304.929199	-608.111398	887.058287	1227.985638	-618.606565	829.028849	1216.079776	-541.967956	639.675394	1244.368516	-94.465665	831.509849	1202.39525	-82.312736	804.433232	1141.366817	-65.646236	949.098029	1223.715598	-542.322807	1018.774082	1356.812431	-453.178556	1057.506266	1300.173349	-445.077598	
55	0.65	942.142412	1057.288569	-433.862653	929.164728	1082.741168	-205.613543	778.998725	1117.48886	-378.864912	772.4275270000001	1117.583183	-289.909987	939.377129	851.440148	-162.289054	1044.305972	844.8879920000001	-179.560809	1045.445449	725.184985	-191.32295	763.145379	872.4407639999999	-486.169136	782.222929	744.895504	-472.692518	690.256693	677.912429	-458.474955	1120.611653	508.223521	-233.831472	1060.568771	467.568857	-194.27579	1043.496487	340.77466	-240.156811	967.494334	243.268055	-228.793944	1002.505871	257.332449	-305.50872	606.108646	451.375626	-415.625929	476.791077	419.966597	-424.185958	479.340238	306.554618	-382.501513	912.402531	234.667086	-301.395956	1112.624261	149.008715	-246.862794	1033.077394	153.198189	-186.307026	325.146687	274.431821	-321.286159	428.175355	81.444864	-323.102908	370.519586	102.00976	-386.60595	921.258104	1581.404133	-486.541903	858.7546160000001	1554.22907	-179.108505	960.000507	1503.037343	-295.422234	852.673847	1589.590657	-339.149516	847.540991	1537.054254	-518.752561	745.099179	1446.797042	-121.69042	670.5011050000001	1423.896469	-180.465703	631.467927	1381.980649	-140.877155	599.857617	1321.568147	-109.390088	614.729588	1302.068868	-200.783964	879.275758	1443.128646	-570.853399	825.9585499999999	1356.035765	-563.215807	866.0208249999999	1311.720844	-607.571669	891.789941	1234.476086	-617.457464	832.326368	1222.451599	-542.37573	635.70899	1250.346653	-99.96507800000001	827.90454	1209.82659	-84.21084999999999	801.087238	1148.521798	-68.229834	951.868347	1232.612816	-539.527936	1015.923195	1368.320007	-449.978686	1055.770916	1312.846062	-440.367328	
